<?xml version="1.0" encoding="utf-8"?>
<svg viewBox="0 0 500 500" xmlns="http://www.w3.org/2000/svg">
  <g id="logo" transform="matrix(1, 0, 0, 1, 45.83334, 186.166672)">
    <path class="cls-1" d="M 315.926 -6.975 L 315.926 78.525 L 336.402 78.525 L 336.402 52.743 L 380.764 52.743 L 380.764 78.336 L 401.238 78.336 L 401.238 -6.975 L 315.926 -6.975 Z M 380.764 32.268 L 336.402 32.268 L 336.402 13.498 L 380.764 13.498 L 380.764 32.268 Z" style=""/>
    <polygon class="cls-1" points="297.175 39.945 297.175 61.274 297.175 78.336 213.569 78.336 213.569 57.861 276.699 57.861 276.699 45.917 213.569 45.917 213.569 27.148 213.569 5.821 213.569 -6.975 297.175 -6.975 297.175 13.498 234.044 13.498 234.044 25.442 297.175 25.442 297.175 39.945 297.175 39.945" style=""/>
    <path class="cls-1" d="M 109.47 -6.975 L 109.47 78.525 L 129.946 78.525 L 129.946 52.743 L 174.307 52.743 L 174.307 78.336 L 194.784 78.336 L 194.784 -6.975 L 109.47 -6.975 Z M 174.307 32.268 L 129.946 32.268 L 129.946 13.498 L 174.307 13.498 L 174.307 32.268 Z" style=""/>
    <path class="cls-1" d="M 63.265 45.816 L 89.473 36.277 L 90.717 35.783 L 90.717 -6.975 L 7.096 -6.975 L 7.096 78.336 L 27.315 78.336 L 27.315 58.868 L 42.671 53.307 L 65.789 78.336 L 91.076 78.336 L 63.265 45.816 Z M 27.434 37.079 L 27.434 13.498 L 70.226 13.498 L 70.226 21.485 L 27.434 37.079 Z" style=""/>
    <path class="cls-1" d="M 378.477 98.025 L 419.273 98.025 L 419.273 -24.995 L -10.906 -24.995 L -10.906 98.025 L 296.22 98.025 L 378.443 138.669 L 378.443 98.025 L 378.477 98.025 Z M -33.855 -47.926 L 442.189 -47.926 L 442.189 120.993 L 401.409 120.993 L 401.409 175.592 L 290.895 120.993 L -33.855 120.993 L -33.855 -47.926 Z" style=""/>
  </g>
</svg>